<svg width="122" height="45" viewBox="0 0 122 45" fill="none" xmlns="http://www.w3.org/2000/svg">
<path d="M64.7291 22.4441C64.6977 21.6006 64.5501 20.8592 64.2867 20.2188C64.0225 19.5791 63.6732 19.0477 63.2389 18.6261C62.8041 18.2043 62.3078 17.8925 61.7491 17.689C61.1903 17.4863 60.6157 17.3846 60.0264 17.3846C58.8158 17.3846 57.768 17.8294 56.8833 18.7195C55.9986 19.6096 55.4938 20.8511 55.3701 22.4441H64.7291ZM55.1839 26.2852C55.277 28.035 55.7813 29.4244 56.6971 30.4552C57.6124 31.4856 58.8158 32.0009 60.3056 32.0009C61.2987 32.0009 62.1753 31.7747 62.9363 31.3218C63.6966 30.8694 64.1856 30.2368 64.4031 29.4244H70.6424C69.928 31.7982 68.6868 33.6254 66.9174 34.9055C65.1481 36.1864 63.0367 36.8263 60.5851 36.8263C52.9489 36.8263 49.1309 32.6413 49.1309 24.2713C49.1309 22.491 49.3787 20.8827 49.8758 19.4458C50.3721 18.0094 51.0936 16.7754 52.0408 15.7447C52.9875 14.7139 54.1434 13.9256 55.5098 13.3788C56.8752 12.8328 58.4432 12.5591 60.2125 12.5591C63.7513 12.5591 66.4284 13.6997 68.2445 15.9789C70.0605 18.259 70.9683 21.6946 70.9683 26.2852H55.1839Z" fill="black"/>
<path d="M86.9853 24.9268C86.6747 25.2394 86.2246 25.489 85.6352 25.6764C85.0453 25.8639 84.1918 26.0674 83.0742 26.2852C81.3355 26.6296 80.1409 27.0666 79.4891 27.5975C78.8372 28.1286 78.5113 28.8935 78.5113 29.8924C78.5113 31.6109 79.4891 32.4691 81.4446 32.4691C82.2201 32.4691 82.9417 32.3369 83.6097 32.0713C84.2765 31.806 84.8509 31.4468 85.3324 30.9939C85.8133 30.5415 86.201 30.0098 86.4966 29.4007C86.7911 28.7918 86.9387 28.144 86.9387 27.4566L86.9853 24.9268ZM87.4043 36.2172C87.2182 35.6242 87.0937 34.9368 87.032 34.156C86.3177 34.9684 85.371 35.6161 84.1918 36.1001C83.0117 36.5837 81.6461 36.8263 80.0943 36.8263C77.4558 36.8263 75.5233 36.2407 74.2974 35.0696C73.0707 33.8982 72.4583 32.3757 72.4583 30.5018C72.4583 28.8466 72.7217 27.5268 73.2499 26.543C73.7772 25.5595 74.5069 24.7862 75.4382 24.224C76.3693 23.6618 77.4791 23.2484 78.7675 22.9828C80.0551 22.7175 81.4599 22.4754 82.9809 22.2562C84.5016 22.0384 85.5261 21.7494 86.0542 21.3898C86.5816 21.0312 86.8456 20.4455 86.8456 19.6331C86.8456 18.8833 86.4966 18.2979 85.7981 17.8763C85.0998 17.4545 84.1604 17.2437 82.9809 17.2437C81.5841 17.2437 80.583 17.5562 79.9778 18.1808C79.3729 18.8059 78.9923 19.6331 78.8372 20.6638H73.2032C73.2338 19.4774 73.428 18.3843 73.7853 17.3846C74.1418 16.3851 74.7164 15.5266 75.508 14.8079C76.2996 14.0897 77.3313 13.5356 78.6041 13.1448C79.8767 12.7545 81.4285 12.5591 83.2604 12.5591C85.0604 12.5591 86.5897 12.7626 87.8467 13.168C89.104 13.5744 90.1123 14.1598 90.8734 14.9247C91.6336 15.6904 92.1843 16.6429 92.5263 17.7824C92.8675 18.923 93.0384 20.2112 93.0384 21.6476V36.2172H87.4043Z" fill="black"/>
<path d="M108.172 12.5596C107.549 12.5596 106.943 12.592 106.356 12.654C105.765 12.7161 105.183 12.8646 104.609 13.0967C104.033 13.3315 103.475 13.6688 102.933 14.1061C102.388 14.5433 101.868 15.1506 101.371 15.9333V13.1668H95.6926V36.2161H101.744V24.2245C101.744 20.508 103.593 18.6487 107.286 18.6487C107.592 18.6487 107.895 18.6619 108.201 18.6916V12.5596H108.172Z" fill="black"/>
<path d="M122 7V36.2164H115.946V18.7864H110.854V12.3491C111.656 12.3032 112.36 12.2063 112.965 12.0606C113.867 11.8417 114.605 11.5043 115.179 11.0512C115.753 10.6004 116.187 10.0363 116.483 9.3643C116.777 8.69468 116.97 7.90658 117.065 7H122Z" fill="black"/>
<mask id="mask0_2037:24" style="mask-type:alpha" maskUnits="userSpaceOnUse" x="0" y="0" width="39" height="45">
<path d="M17.5703 0.0448029C16.9734 0.0817788 16.3798 0.172734 15.7996 0.320908C15.2698 0.456126 14.7451 0.613746 14.2169 0.756522C9.29746 2.03961 5.54062 4.89701 2.87287 9.25235C0.463184 13.1853 -0.355247 17.4478 0.136723 21.9942C0.564046 25.9425 2.32913 29.2917 4.84022 32.2751C7.0734 34.9285 9.7052 37.1249 12.5908 39.0323C15.5839 41.0106 18.7713 42.5585 22.1893 43.6305C23.0332 43.895 23.9002 44.0553 24.7661 44.2213C24.9512 44.2567 25.1527 44.2907 25.2803 44.1004C25.3852 43.9444 25.3439 43.7833 25.2742 43.6348C25.1993 43.4758 25.0942 43.3331 24.9823 43.1973C24.4083 42.5012 23.989 41.7161 23.636 40.8897C23.2202 39.9156 23.3693 38.8414 24.7409 38.483C28.318 37.5478 31.2819 35.563 33.7063 32.7876C37.1952 28.7934 38.8256 24.0945 38.5493 18.7983C38.2564 13.1864 35.9918 8.45831 31.7653 4.76153C28.0752 1.53437 23.787 0 19.0038 0C18.5306 0 18.0531 0.0151142 17.5703 0.0448029Z" fill="white"/>
</mask>
<g mask="url(#mask0_2037:24)">
<path d="M39.9203 -1.34961V18.4784L34.3937 18.4364C34.3843 18.4364 34.3749 18.4364 34.3656 18.4363L34.3374 18.4362C33.0307 18.4362 31.748 18.7919 30.6245 19.4666L29.276 20.2771L27.8707 18.6842C27.7575 18.5565 27.6309 18.4405 27.4933 18.339C26.9731 17.9549 26.3358 17.7981 25.6987 17.8969C25.0613 17.9957 24.5001 18.3382 24.1187 18.8615L23.2372 20.0707L22.0478 15.701C21.8391 14.9332 21.2307 14.3448 20.4587 14.1659C19.9002 14.0374 19.325 14.134 18.839 14.4403C18.3529 14.7464 18.0149 15.2247 17.8864 15.7866L16.8137 20.4806L16.1532 17.4994C15.9631 16.643 15.3262 15.9542 14.4917 15.7024C13.8734 15.5153 13.2207 15.5817 12.6531 15.8894C12.0852 16.1968 11.6703 16.708 11.4846 17.3296L10.6976 19.9657L10.1753 18.3763C9.84723 17.3795 8.92632 16.7102 7.8831 16.7102H6.43777C5.69713 16.7102 5.09652 17.3142 5.09652 18.0597C5.09652 18.8051 5.69713 19.4092 6.43777 19.4092H7.68916L9.21872 24.0627C9.4977 24.9094 10.41 25.3715 11.2529 25.0908C11.7505 24.925 12.1375 24.524 12.288 24.0193L13.7583 19.0953L15.2264 25.7212C15.3201 26.1434 15.5711 26.5037 15.9344 26.7358C16.1954 26.9028 16.4921 26.9887 16.7944 26.9887C16.9119 26.9887 17.0307 26.9757 17.1482 26.9493C17.7485 26.8143 18.2266 26.3374 18.366 25.7318L20.0233 18.481L20.9437 21.8612C21.0947 22.4174 21.4525 22.8811 21.9504 23.1669C22.4483 23.4522 23.0269 23.5254 23.5798 23.3737C24.0449 23.2457 24.4583 22.9594 24.7437 22.568L26.0855 20.7271L27.2701 22.0693C28.125 23.0368 29.5462 23.2576 30.6511 22.5942L31.9996 21.784C32.7169 21.353 33.5241 21.1295 34.3731 21.1354L39.9203 21.1774V45.5982H-1.34143V-1.34961H39.9203Z" fill="#00BF69"/>
</g>
</svg>
